<?xml version="1.0" encoding="utf-8" standalone="no"?>
<!DOCTYPE svg PUBLIC "-//W3C//DTD SVG 1.1//EN"
  "http://www.w3.org/Graphics/SVG/1.1/DTD/svg11.dtd">
<svg xmlns:xlink="http://www.w3.org/1999/xlink" width="288pt" height="504pt" viewBox="0 0 288 504" xmlns="http://www.w3.org/2000/svg" version="1.1">
 <metadata>
  <rdf:RDF xmlns:dc="http://purl.org/dc/elements/1.1/" xmlns:cc="http://creativecommons.org/ns#" xmlns:rdf="http://www.w3.org/1999/02/22-rdf-syntax-ns#">
   <cc:Work>
    <dc:type rdf:resource="http://purl.org/dc/dcmitype/StillImage"/>
    <dc:date>2025-12-13T00:17:00.983472</dc:date>
    <dc:format>image/svg+xml</dc:format>
    <dc:creator>
     <cc:Agent>
      <dc:title>Matplotlib v3.10.3, https://matplotlib.org/</dc:title>
     </cc:Agent>
    </dc:creator>
   </cc:Work>
  </rdf:RDF>
 </metadata>
 <defs>
  <style type="text/css">*{stroke-linejoin: round; stroke-linecap: butt}</style>
 </defs>
 <g id="figure_1">
  <g id="patch_1">
   <path d="M 0 504 
L 288 504 
L 288 0 
L 0 0 
z
" style="fill: #ffffff"/>
  </g>
  <g id="axes_1">
   <g id="patch_2">
    <path d="M 36 236.88 
L 259.2 236.88 
L 259.2 60.48 
L 36 60.48 
z
" style="fill: #ffffff"/>
   </g>
   <g id="matplotlib.axis_1">
    <g id="xtick_1">
     <g id="line2d_1">
      <defs>
       <path id="m8266a41d09" d="M 0 0 
L 0 3.5 
" style="stroke: #000000; stroke-width: 0.8"/>
      </defs>
      <g>
       <use xlink:href="#m8266a41d09" x="46.145455" y="236.88" style="stroke: #000000; stroke-width: 0.8"/>
      </g>
     </g>
     <g id="text_1">
      <!-- 0 -->
      <g transform="translate(42.964205 251.478437) scale(0.1 -0.1)">
       <defs>
        <path id="DejaVuSans-30" d="M 2034 4250 
Q 1547 4250 1301 3770 
Q 1056 3291 1056 2328 
Q 1056 1369 1301 889 
Q 1547 409 2034 409 
Q 2525 409 2770 889 
Q 3016 1369 3016 2328 
Q 3016 3291 2770 3770 
Q 2525 4250 2034 4250 
z
M 2034 4750 
Q 2819 4750 3233 4129 
Q 3647 3509 3647 2328 
Q 3647 1150 3233 529 
Q 2819 -91 2034 -91 
Q 1250 -91 836 529 
Q 422 1150 422 2328 
Q 422 3509 836 4129 
Q 1250 4750 2034 4750 
z
" transform="scale(0.015625)"/>
       </defs>
       <use xlink:href="#DejaVuSans-30"/>
      </g>
     </g>
    </g>
    <g id="xtick_2">
     <g id="line2d_2">
      <g>
       <use xlink:href="#m8266a41d09" x="86.727273" y="236.88" style="stroke: #000000; stroke-width: 0.8"/>
      </g>
     </g>
     <g id="text_2">
      <!-- 50 -->
      <g transform="translate(80.364773 251.478437) scale(0.1 -0.1)">
       <defs>
        <path id="DejaVuSans-35" d="M 691 4666 
L 3169 4666 
L 3169 4134 
L 1269 4134 
L 1269 2991 
Q 1406 3038 1543 3061 
Q 1681 3084 1819 3084 
Q 2600 3084 3056 2656 
Q 3513 2228 3513 1497 
Q 3513 744 3044 326 
Q 2575 -91 1722 -91 
Q 1428 -91 1123 -41 
Q 819 9 494 109 
L 494 744 
Q 775 591 1075 516 
Q 1375 441 1709 441 
Q 2250 441 2565 725 
Q 2881 1009 2881 1497 
Q 2881 1984 2565 2268 
Q 2250 2553 1709 2553 
Q 1456 2553 1204 2497 
Q 953 2441 691 2322 
L 691 4666 
z
" transform="scale(0.015625)"/>
       </defs>
       <use xlink:href="#DejaVuSans-35"/>
       <use xlink:href="#DejaVuSans-30" transform="translate(63.623047 0)"/>
      </g>
     </g>
    </g>
    <g id="xtick_3">
     <g id="line2d_3">
      <g>
       <use xlink:href="#m8266a41d09" x="127.309091" y="236.88" style="stroke: #000000; stroke-width: 0.8"/>
      </g>
     </g>
     <g id="text_3">
      <!-- 100 -->
      <g transform="translate(117.765341 251.478437) scale(0.1 -0.1)">
       <defs>
        <path id="DejaVuSans-31" d="M 794 531 
L 1825 531 
L 1825 4091 
L 703 3866 
L 703 4441 
L 1819 4666 
L 2450 4666 
L 2450 531 
L 3481 531 
L 3481 0 
L 794 0 
L 794 531 
z
" transform="scale(0.015625)"/>
       </defs>
       <use xlink:href="#DejaVuSans-31"/>
       <use xlink:href="#DejaVuSans-30" transform="translate(63.623047 0)"/>
       <use xlink:href="#DejaVuSans-30" transform="translate(127.246094 0)"/>
      </g>
     </g>
    </g>
    <g id="xtick_4">
     <g id="line2d_4">
      <g>
       <use xlink:href="#m8266a41d09" x="167.890909" y="236.88" style="stroke: #000000; stroke-width: 0.8"/>
      </g>
     </g>
     <g id="text_4">
      <!-- 150 -->
      <g transform="translate(158.347159 251.478437) scale(0.1 -0.1)">
       <use xlink:href="#DejaVuSans-31"/>
       <use xlink:href="#DejaVuSans-35" transform="translate(63.623047 0)"/>
       <use xlink:href="#DejaVuSans-30" transform="translate(127.246094 0)"/>
      </g>
     </g>
    </g>
    <g id="xtick_5">
     <g id="line2d_5">
      <g>
       <use xlink:href="#m8266a41d09" x="208.472727" y="236.88" style="stroke: #000000; stroke-width: 0.8"/>
      </g>
     </g>
     <g id="text_5">
      <!-- 200 -->
      <g transform="translate(198.928977 251.478437) scale(0.1 -0.1)">
       <defs>
        <path id="DejaVuSans-32" d="M 1228 531 
L 3431 531 
L 3431 0 
L 469 0 
L 469 531 
Q 828 903 1448 1529 
Q 2069 2156 2228 2338 
Q 2531 2678 2651 2914 
Q 2772 3150 2772 3378 
Q 2772 3750 2511 3984 
Q 2250 4219 1831 4219 
Q 1534 4219 1204 4116 
Q 875 4013 500 3803 
L 500 4441 
Q 881 4594 1212 4672 
Q 1544 4750 1819 4750 
Q 2544 4750 2975 4387 
Q 3406 4025 3406 3419 
Q 3406 3131 3298 2873 
Q 3191 2616 2906 2266 
Q 2828 2175 2409 1742 
Q 1991 1309 1228 531 
z
" transform="scale(0.015625)"/>
       </defs>
       <use xlink:href="#DejaVuSans-32"/>
       <use xlink:href="#DejaVuSans-30" transform="translate(63.623047 0)"/>
       <use xlink:href="#DejaVuSans-30" transform="translate(127.246094 0)"/>
      </g>
     </g>
    </g>
    <g id="xtick_6">
     <g id="line2d_6">
      <g>
       <use xlink:href="#m8266a41d09" x="249.054545" y="236.88" style="stroke: #000000; stroke-width: 0.8"/>
      </g>
     </g>
     <g id="text_6">
      <!-- 250 -->
      <g transform="translate(239.510795 251.478437) scale(0.1 -0.1)">
       <use xlink:href="#DejaVuSans-32"/>
       <use xlink:href="#DejaVuSans-35" transform="translate(63.623047 0)"/>
       <use xlink:href="#DejaVuSans-30" transform="translate(127.246094 0)"/>
      </g>
     </g>
    </g>
    <g id="text_7">
     <!-- Time (ms) -->
     <g transform="translate(114.841016 267.436094) scale(0.13 -0.13)">
      <defs>
       <path id="DejaVuSans-54" d="M -19 4666 
L 3928 4666 
L 3928 4134 
L 2272 4134 
L 2272 0 
L 1638 0 
L 1638 4134 
L -19 4134 
L -19 4666 
z
" transform="scale(0.015625)"/>
       <path id="DejaVuSans-69" d="M 603 3500 
L 1178 3500 
L 1178 0 
L 603 0 
L 603 3500 
z
M 603 4863 
L 1178 4863 
L 1178 4134 
L 603 4134 
L 603 4863 
z
" transform="scale(0.015625)"/>
       <path id="DejaVuSans-6d" d="M 3328 2828 
Q 3544 3216 3844 3400 
Q 4144 3584 4550 3584 
Q 5097 3584 5394 3201 
Q 5691 2819 5691 2113 
L 5691 0 
L 5113 0 
L 5113 2094 
Q 5113 2597 4934 2840 
Q 4756 3084 4391 3084 
Q 3944 3084 3684 2787 
Q 3425 2491 3425 1978 
L 3425 0 
L 2847 0 
L 2847 2094 
Q 2847 2600 2669 2842 
Q 2491 3084 2119 3084 
Q 1678 3084 1418 2786 
Q 1159 2488 1159 1978 
L 1159 0 
L 581 0 
L 581 3500 
L 1159 3500 
L 1159 2956 
Q 1356 3278 1631 3431 
Q 1906 3584 2284 3584 
Q 2666 3584 2933 3390 
Q 3200 3197 3328 2828 
z
" transform="scale(0.015625)"/>
       <path id="DejaVuSans-65" d="M 3597 1894 
L 3597 1613 
L 953 1613 
Q 991 1019 1311 708 
Q 1631 397 2203 397 
Q 2534 397 2845 478 
Q 3156 559 3463 722 
L 3463 178 
Q 3153 47 2828 -22 
Q 2503 -91 2169 -91 
Q 1331 -91 842 396 
Q 353 884 353 1716 
Q 353 2575 817 3079 
Q 1281 3584 2069 3584 
Q 2775 3584 3186 3129 
Q 3597 2675 3597 1894 
z
M 3022 2063 
Q 3016 2534 2758 2815 
Q 2500 3097 2075 3097 
Q 1594 3097 1305 2825 
Q 1016 2553 972 2059 
L 3022 2063 
z
" transform="scale(0.015625)"/>
       <path id="DejaVuSans-20" transform="scale(0.015625)"/>
       <path id="DejaVuSans-28" d="M 1984 4856 
Q 1566 4138 1362 3434 
Q 1159 2731 1159 2009 
Q 1159 1288 1364 580 
Q 1569 -128 1984 -844 
L 1484 -844 
Q 1016 -109 783 600 
Q 550 1309 550 2009 
Q 550 2706 781 3412 
Q 1013 4119 1484 4856 
L 1984 4856 
z
" transform="scale(0.015625)"/>
       <path id="DejaVuSans-73" d="M 2834 3397 
L 2834 2853 
Q 2591 2978 2328 3040 
Q 2066 3103 1784 3103 
Q 1356 3103 1142 2972 
Q 928 2841 928 2578 
Q 928 2378 1081 2264 
Q 1234 2150 1697 2047 
L 1894 2003 
Q 2506 1872 2764 1633 
Q 3022 1394 3022 966 
Q 3022 478 2636 193 
Q 2250 -91 1575 -91 
Q 1294 -91 989 -36 
Q 684 19 347 128 
L 347 722 
Q 666 556 975 473 
Q 1284 391 1588 391 
Q 1994 391 2212 530 
Q 2431 669 2431 922 
Q 2431 1156 2273 1281 
Q 2116 1406 1581 1522 
L 1381 1569 
Q 847 1681 609 1914 
Q 372 2147 372 2553 
Q 372 3047 722 3315 
Q 1072 3584 1716 3584 
Q 2034 3584 2315 3537 
Q 2597 3491 2834 3397 
z
" transform="scale(0.015625)"/>
       <path id="DejaVuSans-29" d="M 513 4856 
L 1013 4856 
Q 1481 4119 1714 3412 
Q 1947 2706 1947 2009 
Q 1947 1309 1714 600 
Q 1481 -109 1013 -844 
L 513 -844 
Q 928 -128 1133 580 
Q 1338 1288 1338 2009 
Q 1338 2731 1133 3434 
Q 928 4138 513 4856 
z
" transform="scale(0.015625)"/>
      </defs>
      <use xlink:href="#DejaVuSans-54"/>
      <use xlink:href="#DejaVuSans-69" transform="translate(57.958984 0)"/>
      <use xlink:href="#DejaVuSans-6d" transform="translate(85.742188 0)"/>
      <use xlink:href="#DejaVuSans-65" transform="translate(183.154297 0)"/>
      <use xlink:href="#DejaVuSans-20" transform="translate(244.677734 0)"/>
      <use xlink:href="#DejaVuSans-28" transform="translate(276.464844 0)"/>
      <use xlink:href="#DejaVuSans-6d" transform="translate(315.478516 0)"/>
      <use xlink:href="#DejaVuSans-73" transform="translate(412.890625 0)"/>
      <use xlink:href="#DejaVuSans-29" transform="translate(464.990234 0)"/>
     </g>
    </g>
   </g>
   <g id="matplotlib.axis_2">
    <g id="ytick_1">
     <g id="line2d_7">
      <defs>
       <path id="mb978350878" d="M 0 0 
L -3.5 0 
" style="stroke: #000000; stroke-width: 0.8"/>
      </defs>
      <g>
       <use xlink:href="#mb978350878" x="36" y="236.88" style="stroke: #000000; stroke-width: 0.8"/>
      </g>
     </g>
     <g id="text_8">
      <!-- −50 -->
      <g transform="translate(7.895312 240.679219) scale(0.1 -0.1)">
       <defs>
        <path id="DejaVuSans-2212" d="M 678 2272 
L 4684 2272 
L 4684 1741 
L 678 1741 
L 678 2272 
z
" transform="scale(0.015625)"/>
       </defs>
       <use xlink:href="#DejaVuSans-2212"/>
       <use xlink:href="#DejaVuSans-35" transform="translate(83.789062 0)"/>
       <use xlink:href="#DejaVuSans-30" transform="translate(147.412109 0)"/>
      </g>
     </g>
    </g>
    <g id="ytick_2">
     <g id="line2d_8">
      <g>
       <use xlink:href="#mb978350878" x="36" y="211.68" style="stroke: #000000; stroke-width: 0.8"/>
      </g>
     </g>
     <g id="text_9">
      <!-- −40 -->
      <g transform="translate(7.895312 215.479219) scale(0.1 -0.1)">
       <defs>
        <path id="DejaVuSans-34" d="M 2419 4116 
L 825 1625 
L 2419 1625 
L 2419 4116 
z
M 2253 4666 
L 3047 4666 
L 3047 1625 
L 3713 1625 
L 3713 1100 
L 3047 1100 
L 3047 0 
L 2419 0 
L 2419 1100 
L 313 1100 
L 313 1709 
L 2253 4666 
z
" transform="scale(0.015625)"/>
       </defs>
       <use xlink:href="#DejaVuSans-2212"/>
       <use xlink:href="#DejaVuSans-34" transform="translate(83.789062 0)"/>
       <use xlink:href="#DejaVuSans-30" transform="translate(147.412109 0)"/>
      </g>
     </g>
    </g>
    <g id="ytick_3">
     <g id="line2d_9">
      <g>
       <use xlink:href="#mb978350878" x="36" y="186.48" style="stroke: #000000; stroke-width: 0.8"/>
      </g>
     </g>
     <g id="text_10">
      <!-- −30 -->
      <g transform="translate(7.895312 190.279219) scale(0.1 -0.1)">
       <defs>
        <path id="DejaVuSans-33" d="M 2597 2516 
Q 3050 2419 3304 2112 
Q 3559 1806 3559 1356 
Q 3559 666 3084 287 
Q 2609 -91 1734 -91 
Q 1441 -91 1130 -33 
Q 819 25 488 141 
L 488 750 
Q 750 597 1062 519 
Q 1375 441 1716 441 
Q 2309 441 2620 675 
Q 2931 909 2931 1356 
Q 2931 1769 2642 2001 
Q 2353 2234 1838 2234 
L 1294 2234 
L 1294 2753 
L 1863 2753 
Q 2328 2753 2575 2939 
Q 2822 3125 2822 3475 
Q 2822 3834 2567 4026 
Q 2313 4219 1838 4219 
Q 1578 4219 1281 4162 
Q 984 4106 628 3988 
L 628 4550 
Q 988 4650 1302 4700 
Q 1616 4750 1894 4750 
Q 2613 4750 3031 4423 
Q 3450 4097 3450 3541 
Q 3450 3153 3228 2886 
Q 3006 2619 2597 2516 
z
" transform="scale(0.015625)"/>
       </defs>
       <use xlink:href="#DejaVuSans-2212"/>
       <use xlink:href="#DejaVuSans-33" transform="translate(83.789062 0)"/>
       <use xlink:href="#DejaVuSans-30" transform="translate(147.412109 0)"/>
      </g>
     </g>
    </g>
    <g id="ytick_4">
     <g id="line2d_10">
      <g>
       <use xlink:href="#mb978350878" x="36" y="161.28" style="stroke: #000000; stroke-width: 0.8"/>
      </g>
     </g>
     <g id="text_11">
      <!-- −20 -->
      <g transform="translate(7.895312 165.079219) scale(0.1 -0.1)">
       <use xlink:href="#DejaVuSans-2212"/>
       <use xlink:href="#DejaVuSans-32" transform="translate(83.789062 0)"/>
       <use xlink:href="#DejaVuSans-30" transform="translate(147.412109 0)"/>
      </g>
     </g>
    </g>
    <g id="ytick_5">
     <g id="line2d_11">
      <g>
       <use xlink:href="#mb978350878" x="36" y="136.08" style="stroke: #000000; stroke-width: 0.8"/>
      </g>
     </g>
     <g id="text_12">
      <!-- −10 -->
      <g transform="translate(7.895312 139.879219) scale(0.1 -0.1)">
       <use xlink:href="#DejaVuSans-2212"/>
       <use xlink:href="#DejaVuSans-31" transform="translate(83.789062 0)"/>
       <use xlink:href="#DejaVuSans-30" transform="translate(147.412109 0)"/>
      </g>
     </g>
    </g>
    <g id="ytick_6">
     <g id="line2d_12">
      <g>
       <use xlink:href="#mb978350878" x="36" y="110.88" style="stroke: #000000; stroke-width: 0.8"/>
      </g>
     </g>
     <g id="text_13">
      <!-- 0 -->
      <g transform="translate(22.6375 114.679219) scale(0.1 -0.1)">
       <use xlink:href="#DejaVuSans-30"/>
      </g>
     </g>
    </g>
    <g id="ytick_7">
     <g id="line2d_13">
      <g>
       <use xlink:href="#mb978350878" x="36" y="85.68" style="stroke: #000000; stroke-width: 0.8"/>
      </g>
     </g>
     <g id="text_14">
      <!-- 10 -->
      <g transform="translate(16.275 89.479219) scale(0.1 -0.1)">
       <use xlink:href="#DejaVuSans-31"/>
       <use xlink:href="#DejaVuSans-30" transform="translate(63.623047 0)"/>
      </g>
     </g>
    </g>
    <g id="ytick_8">
     <g id="line2d_14">
      <g>
       <use xlink:href="#mb978350878" x="36" y="60.48" style="stroke: #000000; stroke-width: 0.8"/>
      </g>
     </g>
     <g id="text_15">
      <!-- 20 -->
      <g transform="translate(16.275 64.279219) scale(0.1 -0.1)">
       <use xlink:href="#DejaVuSans-32"/>
       <use xlink:href="#DejaVuSans-30" transform="translate(63.623047 0)"/>
      </g>
     </g>
    </g>
    <g id="text_16">
     <!-- Dipole (nAm) -->
     <g transform="translate(1.191719 191.434766) rotate(-90) scale(0.13 -0.13)">
      <defs>
       <path id="DejaVuSans-44" d="M 1259 4147 
L 1259 519 
L 2022 519 
Q 2988 519 3436 956 
Q 3884 1394 3884 2338 
Q 3884 3275 3436 3711 
Q 2988 4147 2022 4147 
L 1259 4147 
z
M 628 4666 
L 1925 4666 
Q 3281 4666 3915 4102 
Q 4550 3538 4550 2338 
Q 4550 1131 3912 565 
Q 3275 0 1925 0 
L 628 0 
L 628 4666 
z
" transform="scale(0.015625)"/>
       <path id="DejaVuSans-70" d="M 1159 525 
L 1159 -1331 
L 581 -1331 
L 581 3500 
L 1159 3500 
L 1159 2969 
Q 1341 3281 1617 3432 
Q 1894 3584 2278 3584 
Q 2916 3584 3314 3078 
Q 3713 2572 3713 1747 
Q 3713 922 3314 415 
Q 2916 -91 2278 -91 
Q 1894 -91 1617 61 
Q 1341 213 1159 525 
z
M 3116 1747 
Q 3116 2381 2855 2742 
Q 2594 3103 2138 3103 
Q 1681 3103 1420 2742 
Q 1159 2381 1159 1747 
Q 1159 1113 1420 752 
Q 1681 391 2138 391 
Q 2594 391 2855 752 
Q 3116 1113 3116 1747 
z
" transform="scale(0.015625)"/>
       <path id="DejaVuSans-6f" d="M 1959 3097 
Q 1497 3097 1228 2736 
Q 959 2375 959 1747 
Q 959 1119 1226 758 
Q 1494 397 1959 397 
Q 2419 397 2687 759 
Q 2956 1122 2956 1747 
Q 2956 2369 2687 2733 
Q 2419 3097 1959 3097 
z
M 1959 3584 
Q 2709 3584 3137 3096 
Q 3566 2609 3566 1747 
Q 3566 888 3137 398 
Q 2709 -91 1959 -91 
Q 1206 -91 779 398 
Q 353 888 353 1747 
Q 353 2609 779 3096 
Q 1206 3584 1959 3584 
z
" transform="scale(0.015625)"/>
       <path id="DejaVuSans-6c" d="M 603 4863 
L 1178 4863 
L 1178 0 
L 603 0 
L 603 4863 
z
" transform="scale(0.015625)"/>
       <path id="DejaVuSans-6e" d="M 3513 2113 
L 3513 0 
L 2938 0 
L 2938 2094 
Q 2938 2591 2744 2837 
Q 2550 3084 2163 3084 
Q 1697 3084 1428 2787 
Q 1159 2491 1159 1978 
L 1159 0 
L 581 0 
L 581 3500 
L 1159 3500 
L 1159 2956 
Q 1366 3272 1645 3428 
Q 1925 3584 2291 3584 
Q 2894 3584 3203 3211 
Q 3513 2838 3513 2113 
z
" transform="scale(0.015625)"/>
       <path id="DejaVuSans-41" d="M 2188 4044 
L 1331 1722 
L 3047 1722 
L 2188 4044 
z
M 1831 4666 
L 2547 4666 
L 4325 0 
L 3669 0 
L 3244 1197 
L 1141 1197 
L 716 0 
L 50 0 
L 1831 4666 
z
" transform="scale(0.015625)"/>
      </defs>
      <use xlink:href="#DejaVuSans-44"/>
      <use xlink:href="#DejaVuSans-69" transform="translate(77.001953 0)"/>
      <use xlink:href="#DejaVuSans-70" transform="translate(104.785156 0)"/>
      <use xlink:href="#DejaVuSans-6f" transform="translate(168.261719 0)"/>
      <use xlink:href="#DejaVuSans-6c" transform="translate(229.443359 0)"/>
      <use xlink:href="#DejaVuSans-65" transform="translate(257.226562 0)"/>
      <use xlink:href="#DejaVuSans-20" transform="translate(318.75 0)"/>
      <use xlink:href="#DejaVuSans-28" transform="translate(350.537109 0)"/>
      <use xlink:href="#DejaVuSans-6e" transform="translate(389.550781 0)"/>
      <use xlink:href="#DejaVuSans-41" transform="translate(452.929688 0)"/>
      <use xlink:href="#DejaVuSans-6d" transform="translate(521.337891 0)"/>
      <use xlink:href="#DejaVuSans-29" transform="translate(618.75 0)"/>
     </g>
    </g>
   </g>
   <g id="line2d_15">
    <path d="M 46.145455 109.828622 
L 48.783273 109.611917 
L 50.244218 109.689477 
L 51.684873 109.937094 
L 53.511055 110.360113 
L 54.403855 110.28001 
L 59.922982 109.227454 
L 61.424509 108.615744 
L 62.824582 107.84156 
L 64.285527 106.740487 
L 69.622036 101.993117 
L 71.387345 99.892289 
L 73.639636 97.00544 
L 75.486109 94.227121 
L 80.295055 86.406364 
L 82.161818 83.842288 
L 83.521309 82.347319 
L 85.124291 80.877318 
L 85.834473 80.552142 
L 86.402618 80.484476 
L 87.275127 80.668505 
L 88.066473 81.072758 
L 88.776655 81.674748 
L 89.710036 82.771585 
L 90.623127 84.191036 
L 91.495636 85.936521 
L 92.510182 88.562875 
L 94.092873 93.526613 
L 95.411782 98.343583 
L 96.629236 103.712678 
L 98.962691 115.440103 
L 101.316436 128.571369 
L 106.855855 159.801045 
L 109.656 173.618207 
L 110.9952 179.204934 
L 112.943127 186.314926 
L 114.282327 190.394292 
L 116.027345 194.89304 
L 117.833236 198.882659 
L 118.969527 200.843317 
L 121.140655 203.859634 
L 122.134909 204.813228 
L 122.905964 205.241113 
L 124.001673 205.675735 
L 124.732145 205.608474 
L 125.604655 205.261097 
L 126.497455 204.735572 
L 127.227927 204.055453 
L 127.938109 203.094594 
L 128.830909 201.418243 
L 129.784582 199.118914 
L 131.022327 195.603705 
L 132.320945 191.246893 
L 133.497818 186.594848 
L 136.318255 174.296331 
L 140.335855 156.989706 
L 142.953382 147.308327 
L 144.292582 143.42679 
L 145.652073 139.940693 
L 146.808655 137.487865 
L 148.9392 133.645218 
L 151.759636 128.975493 
L 156.020727 122.582825 
L 168.844582 99.580209 
L 180.390109 81.210174 
L 182.175709 78.890841 
L 183.454036 77.655264 
L 185.077309 76.445172 
L 186.173018 75.794155 
L 187.187564 75.471563 
L 188.242691 75.343839 
L 189.176073 75.513668 
L 190.474691 76.012631 
L 191.489236 76.606309 
L 192.869018 77.790707 
L 194.309673 79.329823 
L 196.724291 82.314834 
L 201.797018 88.380124 
L 204.434836 90.839934 
L 205.672582 91.687728 
L 209.953964 94.202455 
L 212.896145 95.681377 
L 215.980364 97.298625 
L 220.606691 99.740963 
L 223.224218 100.826973 
L 225.517091 101.549662 
L 227.647636 102.001972 
L 230.326036 102.340926 
L 239.659855 103.335991 
L 242.155636 103.98962 
L 244.549964 104.840457 
L 247.897964 106.288852 
L 249.054545 106.824911 
L 249.054545 106.824911 
" clip-path="url(#p25306e8300)" style="fill: none; stroke: #1f77b4; stroke-opacity: 0.3; stroke-linecap: square"/>
   </g>
   <g id="line2d_16">
    <path d="M 46.145455 108.178318 
L 48.0528 107.359002 
L 53.328436 105.269851 
L 54.606764 105.228018 
L 55.479273 105.4173 
L 57.366327 106.133705 
L 59.578036 107.137003 
L 60.836073 108.05991 
L 64.975418 111.301282 
L 65.989964 111.740689 
L 66.963927 111.95552 
L 68.059636 111.950007 
L 69.074182 111.766256 
L 69.946691 111.361199 
L 70.961236 110.644573 
L 72.138109 109.491779 
L 73.578764 107.768183 
L 75.039709 105.633818 
L 80.660291 96.943749 
L 81.938618 95.442165 
L 83.156073 94.469863 
L 84.170618 93.872747 
L 85.043127 93.705055 
L 86.280873 93.734163 
L 87.1128 93.934054 
L 88.594036 94.504214 
L 89.263636 95.041184 
L 90.339055 96.269668 
L 91.515927 98.119175 
L 93.707345 102.090822 
L 95.127709 105.277939 
L 96.385745 108.46692 
L 98.029309 113.362103 
L 99.571418 118.569809 
L 101.3976 125.587827 
L 103.122327 132.873242 
L 105.273164 142.915572 
L 111.948873 175.169254 
L 113.754764 182.852783 
L 115.154836 188.09911 
L 116.615782 192.779748 
L 117.772364 195.783915 
L 118.847782 198.006735 
L 120.1464 200.178432 
L 120.978327 201.213641 
L 121.546473 201.608046 
L 122.317527 201.821395 
L 122.905964 201.790562 
L 123.616145 201.53796 
L 124.306036 200.983051 
L 125.077091 200.177736 
L 125.990182 198.803936 
L 126.720655 197.31077 
L 128.141018 193.728177 
L 129.561382 189.638066 
L 131.428145 183.732002 
L 133.234036 177.138813 
L 135.689236 168.217773 
L 138.286473 159.804504 
L 139.747418 155.745098 
L 141.330109 151.820122 
L 143.156291 147.740798 
L 147.944945 138.362574 
L 153.301745 127.927441 
L 157.704873 119.033708 
L 161.154327 112.983607 
L 163.873309 108.806232 
L 165.658909 106.402004 
L 167.0184 104.822644 
L 168.804 102.6046 
L 175.175345 93.991797 
L 180.714764 86.649703 
L 183.454036 83.676733 
L 187.228145 81.006037 
L 188.344145 80.732829 
L 190.637018 80.449332 
L 191.651564 80.656648 
L 193.011055 81.246481 
L 195.790909 82.620061 
L 196.947491 83.50773 
L 203.136218 88.470618 
L 208.391564 91.720499 
L 211.029382 93.107917 
L 213.6672 94.534106 
L 216.589091 96.051972 
L 221.499491 98.48487 
L 223.751782 99.355731 
L 226.876582 100.296771 
L 229.189745 100.76894 
L 232.294255 101.187698 
L 236.4336 101.625562 
L 239.436655 102.128584 
L 241.770109 102.738794 
L 244.062982 103.571959 
L 246.660218 104.764392 
L 249.054545 106.012559 
L 249.054545 106.012559 
" clip-path="url(#p25306e8300)" style="fill: none; stroke: #1f77b4; stroke-opacity: 0.3; stroke-linecap: square"/>
   </g>
   <g id="line2d_17">
    <path d="M 46.145455 111.932535 
L 47.504945 112.053506 
L 48.458618 112.278731 
L 49.757236 112.854243 
L 52.557382 114.100118 
L 54.160364 115.09337 
L 56.717018 116.298412 
L 57.853309 116.817734 
L 58.9896 117.100539 
L 60.450545 117.179121 
L 61.525964 117.010442 
L 62.3376 116.673129 
L 63.2304 116.050301 
L 64.1232 115.180189 
L 65.360945 113.651211 
L 66.416073 111.982347 
L 67.6944 109.539889 
L 68.972727 106.618617 
L 71.427927 100.262478 
L 75.9528 88.195443 
L 77.657236 84.292488 
L 79.037018 81.639435 
L 79.9704 80.322369 
L 81.593673 78.36824 
L 82.324145 77.775654 
L 83.074909 77.466141 
L 83.947418 77.324272 
L 85.246036 77.337393 
L 85.9968 77.564526 
L 86.747564 77.970519 
L 87.620073 78.72963 
L 88.452 79.801696 
L 89.872364 81.968934 
L 90.947782 84.117555 
L 91.982618 86.749617 
L 93.382691 90.87955 
L 94.661018 95.325716 
L 96.345164 102.122877 
L 98.090182 110.459152 
L 100.017818 120.718944 
L 108.357382 167.098155 
L 110.467636 176.788341 
L 112.050327 183.076356 
L 114.262036 190.909923 
L 116.392582 197.161339 
L 118.259345 202.055524 
L 120.816 207.865186 
L 122.1552 210.134759 
L 123.474109 211.918041 
L 124.245164 212.593328 
L 125.178545 213.163985 
L 126.010473 213.400855 
L 126.700364 213.324838 
L 127.613455 212.979564 
L 128.912073 212.272881 
L 129.459927 211.647807 
L 130.454182 210.058872 
L 131.387564 208.154625 
L 132.564436 205.117302 
L 134.187709 200.426763 
L 135.567491 195.802495 
L 138.286473 185.658419 
L 140.173527 177.746294 
L 143.460655 163.781454 
L 148.655127 143.653757 
L 150.420436 137.748139 
L 152.916218 130.508655 
L 155.1888 124.652771 
L 157.501964 119.246267 
L 163.4472 106.199418 
L 165.658909 101.711618 
L 168.479345 96.255621 
L 170.264945 93.366764 
L 171.786764 91.38869 
L 173.328873 90.024654 
L 176.311636 88.03289 
L 177.366764 87.67062 
L 180.714764 86.978393 
L 181.9728 86.836099 
L 185.949818 85.907089 
L 188.892 85.756667 
L 191.610982 86.140228 
L 193.842982 86.941465 
L 195.669164 87.870219 
L 202.243418 92.084107 
L 206.687127 94.399415 
L 208.716218 95.244709 
L 213.8904 97.390954 
L 216.751418 98.588636 
L 218.881964 99.404027 
L 221.966182 100.352354 
L 224.908364 101.021416 
L 227.7288 101.428781 
L 231.097091 101.69444 
L 237.346691 102.127885 
L 239.822182 102.541804 
L 242.054182 103.141309 
L 244.367345 103.997253 
L 247.086327 105.25443 
L 249.054545 106.26167 
L 249.054545 106.26167 
" clip-path="url(#p25306e8300)" style="fill: none; stroke: #1f77b4; stroke-opacity: 0.3; stroke-linecap: square"/>
   </g>
   <g id="line2d_18">
    <path d="M 46.145455 108.19552 
L 52.171855 105.372505 
L 55.803927 104.095971 
L 59.293964 103.271896 
L 64.386982 102.052634 
L 66.862473 101.196114 
L 68.303127 100.455705 
L 75.5064 96.820406 
L 76.805018 96.537624 
L 77.900727 96.596653 
L 79.381964 96.83899 
L 80.984945 97.464719 
L 82.567636 98.444185 
L 83.561891 99.45571 
L 85.347491 101.773183 
L 87.863564 105.572878 
L 89.588291 108.893434 
L 92.226109 114.805989 
L 95.614691 123.549552 
L 97.319127 128.751674 
L 100.768582 139.927542 
L 105.496364 156.432409 
L 107.424 163.216368 
L 109.757455 170.443062 
L 115.337455 185.622704 
L 116.899855 188.889274 
L 122.256655 199.989182 
L 123.9408 202.574592 
L 124.935055 203.639453 
L 125.706109 204.093923 
L 126.964145 204.572151 
L 127.532291 204.508715 
L 128.242473 204.185909 
L 128.891782 203.666118 
L 129.906327 202.625253 
L 130.819418 201.350756 
L 131.7528 199.675739 
L 132.686182 197.422544 
L 133.9848 193.640177 
L 136.967564 183.874775 
L 143.8056 160.567194 
L 147.904364 148.692017 
L 153.991636 133.610189 
L 155.878691 128.816275 
L 157.948364 123.963313 
L 164.380582 110.962207 
L 172.3752 98.382168 
L 174.363709 95.66295 
L 178.523345 90.758743 
L 180.166909 89.137445 
L 182.297455 87.40771 
L 183.819273 86.457368 
L 185.341091 85.567611 
L 186.781745 84.702991 
L 187.776 84.446816 
L 189.358691 84.280574 
L 191.184873 84.218729 
L 192.321164 84.491577 
L 194.512582 85.144245 
L 195.588 85.71605 
L 202.243418 89.671231 
L 204.171055 90.71697 
L 206.382764 91.941048 
L 211.536655 95.046095 
L 215.736873 97.954855 
L 218.658764 99.965455 
L 221.195127 101.45804 
L 223.183636 102.320106 
L 226.024364 103.267374 
L 228.357818 103.706517 
L 239.254036 105.594196 
L 242.9064 106.656003 
L 249.054545 108.603479 
L 249.054545 108.603479 
" clip-path="url(#p25306e8300)" style="fill: none; stroke: #1f77b4; stroke-opacity: 0.3; stroke-linecap: square"/>
   </g>
   <g id="line2d_19">
    <path d="M 46.145455 110.666088 
L 47.849891 110.332124 
L 52.597964 109.223421 
L 60.207055 106.415364 
L 62.804291 105.176832 
L 67.430618 102.336729 
L 69.155345 100.844265 
L 71.549673 98.806275 
L 76.155709 95.666062 
L 78.063055 94.789595 
L 79.118182 94.624784 
L 80.355927 94.689523 
L 81.350182 94.940421 
L 84.089455 96.163426 
L 85.043127 96.886515 
L 86.037382 97.874851 
L 87.883855 100.252487 
L 89.466545 102.702778 
L 90.704291 104.923183 
L 92.205818 108.075806 
L 94.559564 113.704345 
L 96.9336 120.689848 
L 99.206182 128.036179 
L 100.930909 134.438925 
L 108.073309 162.12386 
L 110.914036 173.284007 
L 118.036145 198.302809 
L 119.801455 203.170341 
L 121.384145 206.74109 
L 122.540727 208.698529 
L 123.616145 210.042079 
L 124.306036 210.610067 
L 124.935055 210.850187 
L 125.584364 210.861503 
L 126.1728 210.637825 
L 126.862691 210.119541 
L 127.694618 209.157496 
L 128.526545 207.836571 
L 129.439636 205.966808 
L 130.677382 202.879661 
L 131.833964 199.251286 
L 133.071709 194.598912 
L 137.535709 175.738654 
L 143.338909 151.585266 
L 145.489745 144.694583 
L 147.681164 138.56102 
L 149.3856 134.130361 
L 150.745091 131.433255 
L 153.200291 127.135172 
L 154.417745 125.46418 
L 156.690327 122.264056 
L 158.151273 120.318294 
L 160.525309 117.44977 
L 162.148582 115.156944 
L 164.177673 111.775459 
L 166.145891 108.396372 
L 168.073527 104.904721 
L 173.328873 94.375777 
L 174.323127 92.845073 
L 177.326182 88.876423 
L 178.726255 87.451288 
L 179.578473 86.891656 
L 180.4104 86.617109 
L 181.201745 86.60533 
L 182.236582 86.564672 
L 183.352582 86.610223 
L 184.083055 86.824877 
L 186.964364 88.061016 
L 188.262982 88.9012 
L 189.378982 89.800273 
L 191.306618 91.25682 
L 193.274836 92.377725 
L 195.8112 93.566684 
L 198.164945 94.392744 
L 199.788218 94.602362 
L 203.278255 94.825508 
L 205.246473 95.028035 
L 207.478473 95.461064 
L 208.777091 95.919893 
L 211.800436 97.260386 
L 214.032436 98.573769 
L 219.6936 101.923347 
L 221.540073 102.710426 
L 223.853236 103.442466 
L 225.679418 103.842503 
L 228.012873 104.068222 
L 230.934764 104.141693 
L 238.909091 104.243251 
L 241.344 104.592682 
L 243.636873 105.15741 
L 246.274691 106.034303 
L 249.054545 107.141311 
L 249.054545 107.141311 
" clip-path="url(#p25306e8300)" style="fill: none; stroke: #1f77b4; stroke-opacity: 0.3; stroke-linecap: square"/>
   </g>
   <g id="line2d_20">
    <path d="M 46.145455 110.563159 
L 47.768727 110.778845 
L 48.844145 111.134542 
L 50.994982 112.083099 
L 53.166109 113.21435 
L 54.992291 114.04552 
L 56.047418 114.351467 
L 57.061964 114.427558 
L 58.299709 114.296972 
L 59.598327 113.911398 
L 60.389673 113.436412 
L 61.525964 112.476226 
L 62.743418 111.210044 
L 63.879709 109.680156 
L 65.2392 107.446353 
L 66.963927 104.095957 
L 69.155345 99.489106 
L 71.082982 95.621042 
L 72.746836 92.646025 
L 73.923709 90.937033 
L 75.161455 89.512394 
L 77.292 87.372346 
L 77.900727 87.147016 
L 79.016727 87.045875 
L 79.767491 87.201382 
L 80.782036 87.668516 
L 81.918327 88.38597 
L 82.790836 89.182071 
L 84.292364 90.970674 
L 85.9968 93.389002 
L 87.193964 95.522881 
L 88.269382 97.805918 
L 90.744873 103.64416 
L 92.713091 108.731746 
L 95.087127 115.54818 
L 96.852436 121.058564 
L 98.638036 127.215968 
L 102.371564 140.844913 
L 110.873455 173.572049 
L 112.293818 178.182246 
L 113.977964 182.788227 
L 115.499782 186.254668 
L 116.717236 188.469757 
L 117.853527 190.094781 
L 119.415927 191.841416 
L 120.126109 192.274302 
L 120.816 192.429343 
L 121.607345 192.407801 
L 122.520436 192.121242 
L 123.798764 191.502696 
L 124.955345 190.677203 
L 126.091636 189.551727 
L 127.613455 187.506462 
L 128.770036 185.510968 
L 130.393309 182.317698 
L 132.909382 176.339166 
L 135.060218 170.769383 
L 138.489382 160.175946 
L 141.999709 149.463353 
L 144.414327 142.886617 
L 145.773818 139.932146 
L 148.249309 135.257424 
L 149.811709 132.968571 
L 151.414691 130.535625 
L 152.9568 128.277234 
L 154.5192 126.465094 
L 155.838109 124.817266 
L 157.136727 122.867248 
L 159.104945 119.355495 
L 161.418109 115.223749 
L 164.502327 109.558972 
L 169.595345 100.202074 
L 171.725891 96.847896 
L 173.7144 94.143767 
L 176.210182 91.31292 
L 178.442182 88.998466 
L 179.314691 88.307116 
L 181.7496 86.928675 
L 182.784436 86.559875 
L 184.123636 86.395186 
L 185.9904 86.399325 
L 187.248436 86.50868 
L 189.5616 87.074964 
L 191.306618 87.813324 
L 193.1328 88.556308 
L 196.663418 89.255887 
L 201.634691 90.289086 
L 205.794327 91.884982 
L 207.174109 92.645471 
L 212.591782 95.70938 
L 216.852873 97.571236 
L 219.287782 98.289745 
L 222.635782 99.059509 
L 226.6128 99.728581 
L 230.082545 100.180874 
L 236.900291 100.987745 
L 239.436655 101.515686 
L 241.688945 102.212024 
L 243.981818 103.157997 
L 246.660218 104.517594 
L 249.054545 105.865912 
L 249.054545 105.865912 
" clip-path="url(#p25306e8300)" style="fill: none; stroke: #1f77b4; stroke-opacity: 0.3; stroke-linecap: square"/>
   </g>
   <g id="line2d_21">
    <path d="M 46.145455 110.422141 
L 50.081891 109.506473 
L 54.606764 108.133887 
L 56.676436 107.557447 
L 60.7752 106.723093 
L 64.772509 106.164027 
L 67.369745 106.216409 
L 68.303127 106.176006 
L 69.804655 106.367595 
L 75.912218 107.51951 
L 80.497964 108.798479 
L 83.521309 109.215116 
L 84.982255 109.288783 
L 89.202764 108.974623 
L 91.597091 108.492339 
L 93.220364 108.348706 
L 94.092873 108.496099 
L 94.904509 108.894232 
L 95.655273 109.589661 
L 97.582909 111.724746 
L 98.475709 113.008705 
L 99.226473 114.458075 
L 100.362764 117.207485 
L 101.6208 120.884351 
L 103.020873 125.675774 
L 104.380364 131.225925 
L 106.571782 141.039857 
L 112.537309 167.823636 
L 114.627273 176.193578 
L 116.250545 181.672597 
L 119.355055 191.237784 
L 121.505891 196.716201 
L 122.926255 199.830816 
L 124.346618 202.311247 
L 125.645236 204.226688 
L 126.578618 205.202808 
L 127.268509 205.605094 
L 127.856945 205.706298 
L 128.668582 205.600697 
L 129.581673 205.255391 
L 130.291855 204.781411 
L 131.022327 203.986175 
L 131.813673 202.850383 
L 132.706473 201.160164 
L 133.741309 198.67005 
L 135.344291 193.898806 
L 137.190764 187.475825 
L 139.179273 179.80485 
L 143.724436 162.193016 
L 145.997018 154.445766 
L 147.660873 149.536287 
L 149.101527 145.92613 
L 151.739345 139.473659 
L 159.287564 122.462171 
L 161.580436 116.750319 
L 167.728582 99.762592 
L 170.893964 91.015306 
L 172.557818 87.20371 
L 173.978182 84.460371 
L 175.439127 82.043016 
L 176.758036 80.26171 
L 177.853745 79.125309 
L 179.0712 78.212172 
L 179.903127 77.823228 
L 181.364073 77.414382 
L 182.317745 77.412317 
L 183.575782 77.595848 
L 185.7672 78.211091 
L 186.781745 78.707799 
L 189.135491 80.056887 
L 191.996509 81.992327 
L 193.761818 83.204644 
L 200.4984 88.243315 
L 203.115927 90.242449 
L 206.504509 92.787583 
L 208.878545 94.60307 
L 213.301964 97.569239 
L 215.838327 98.974579 
L 217.725382 99.791869 
L 219.450109 100.334969 
L 222.270545 100.965957 
L 224.786618 101.240873 
L 229.352073 101.554816 
L 234.952364 101.893209 
L 238.097455 102.283884 
L 240.532364 102.812613 
L 242.865818 103.568029 
L 245.402182 104.622941 
L 248.953091 106.372024 
L 249.054545 106.423828 
L 249.054545 106.423828 
" clip-path="url(#p25306e8300)" style="fill: none; stroke: #1f77b4; stroke-opacity: 0.3; stroke-linecap: square"/>
   </g>
   <g id="line2d_22">
    <path d="M 46.145455 110.319749 
L 47.302036 110.362908 
L 48.215127 110.396096 
L 51.664582 111.057416 
L 54.850255 112.078778 
L 55.966255 112.367645 
L 57.285164 112.427289 
L 58.340291 112.314105 
L 60.572291 111.626076 
L 61.627418 111.006683 
L 62.824582 110.043859 
L 64.163782 108.629879 
L 65.360945 107.021731 
L 67.126255 104.140655 
L 69.378545 99.957812 
L 73.7208 91.629542 
L 75.5064 88.725121 
L 76.947055 86.890555 
L 78.286255 85.494223 
L 79.179055 84.870488 
L 79.889236 84.63018 
L 81.492218 84.397881 
L 82.060364 84.582132 
L 82.973455 85.14184 
L 83.947418 85.992041 
L 85.043127 87.320416 
L 86.22 89.180251 
L 87.478036 91.585094 
L 88.837527 94.737058 
L 90.440509 99.04274 
L 92.307273 104.895999 
L 93.768218 110.171594 
L 96.081382 119.491395 
L 98.617745 130.484558 
L 102.757091 150.007533 
L 105.029673 160.359078 
L 107.525455 170.752107 
L 109.067564 176.206828 
L 110.792291 181.530242 
L 112.151782 184.990965 
L 113.490982 187.812177 
L 114.606982 189.673482 
L 115.662109 191.04438 
L 116.595491 191.909509 
L 118.218764 193.048696 
L 118.949236 193.237762 
L 120.998618 193.359626 
L 122.094327 193.187975 
L 122.885673 192.888486 
L 124.488655 192.047492 
L 125.523491 191.116045 
L 127.004727 189.38732 
L 128.830909 186.841774 
L 130.109236 184.659694 
L 131.468727 182.051279 
L 133.436945 177.491092 
L 134.8776 173.20325 
L 138.286473 162.497615 
L 144.191127 142.953271 
L 146.0376 137.584826 
L 148.918909 129.914081 
L 153.890182 118.198172 
L 160.078909 105.051096 
L 161.803636 101.520101 
L 163.995055 97.277091 
L 165.841527 94.035489 
L 167.180727 92.12576 
L 169.575055 89.010022 
L 170.691055 88.104772 
L 172.152 87.212078 
L 173.146255 86.725637 
L 174.465164 86.45158 
L 176.007273 86.458052 
L 177.468218 86.660447 
L 178.929164 86.919111 
L 183.413455 88.162349 
L 184.590327 88.457955 
L 186.781745 88.646425 
L 189.034036 89.003727 
L 191.103709 89.391482 
L 192.158836 89.616717 
L 194.472 90.216828 
L 196.135855 90.695362 
L 198.733091 91.794664 
L 202.811564 93.896936 
L 208.898836 96.931089 
L 211.8816 98.151315 
L 219.896509 100.666772 
L 223.893818 101.551737 
L 227.5056 102.047087 
L 230.021673 102.217786 
L 239.578691 102.611922 
L 241.709236 103.055783 
L 243.839782 103.729247 
L 246.193527 104.715724 
L 249.054545 106.145304 
L 249.054545 106.145304 
" clip-path="url(#p25306e8300)" style="fill: none; stroke: #1f77b4; stroke-opacity: 0.3; stroke-linecap: square"/>
   </g>
   <g id="line2d_23">
    <path d="M 46.145455 111.130493 
L 49.818109 110.941163 
L 51.684873 110.698466 
L 52.861745 110.302425 
L 54.5256 109.798745 
L 56.412655 109.174873 
L 57.548945 108.563821 
L 60.369382 106.924692 
L 63.088364 105.828199 
L 64.873964 105.125007 
L 66.132 104.812479 
L 67.998764 104.628306 
L 69.682909 104.751358 
L 78.367418 105.463154 
L 82.060364 104.870604 
L 83.947418 104.646475 
L 84.799636 104.710388 
L 87.234545 105.317559 
L 88.370836 105.697463 
L 89.162182 106.213973 
L 90.034691 107.103611 
L 91.313018 108.765002 
L 93.565309 112.16955 
L 94.356655 113.770809 
L 97.319127 120.703807 
L 101.559927 132.238634 
L 104.177455 140.285926 
L 106.308 147.563579 
L 110.285018 161.876652 
L 118.299927 194.042645 
L 119.679709 198.438098 
L 121.343564 202.951916 
L 122.459564 205.446616 
L 123.433527 207.111832 
L 124.306036 208.163294 
L 125.077091 208.771131 
L 125.807564 209.074294 
L 126.396 209.114291 
L 127.045309 208.912818 
L 127.978691 208.433675 
L 128.749745 207.711908 
L 129.561382 206.62745 
L 130.555636 204.909362 
L 132.118036 201.766176 
L 133.254327 198.985565 
L 134.268873 195.692427 
L 136.744364 186.864047 
L 139.280727 176.826283 
L 143.541818 159.755387 
L 145.428873 152.430287 
L 147.498545 145.271378 
L 149.466764 139.042598 
L 151.049455 134.847792 
L 152.936509 130.537276 
L 156.467127 123.097865 
L 160.789091 115.60806 
L 162.473236 112.668842 
L 164.076218 109.690548 
L 166.267636 105.502176 
L 173.004218 94.503162 
L 174.343418 92.746682 
L 176.068145 90.89706 
L 176.981236 90.147552 
L 179.2944 88.744377 
L 180.146618 88.434002 
L 181.323491 88.281533 
L 183.027927 88.274709 
L 184.407709 88.405362 
L 185.584582 88.749837 
L 187.146982 89.493732 
L 189.034036 90.298453 
L 195.872073 92.142444 
L 198.611345 92.81494 
L 200.356364 93.51339 
L 202.446327 94.512621 
L 204.089891 95.428156 
L 206.869745 97.331565 
L 211.496073 100.599239 
L 213.829527 101.877824 
L 215.2296 102.503526 
L 217.664509 103.311089 
L 219.226909 103.611547 
L 221.824145 103.839116 
L 224.583709 103.885682 
L 230.143418 103.746776 
L 235.175564 103.701201 
L 238.097455 103.897646 
L 240.633818 104.289742 
L 243.089018 104.897571 
L 245.747127 105.790985 
L 249.054545 107.12107 
L 249.054545 107.12107 
" clip-path="url(#p25306e8300)" style="fill: none; stroke: #1f77b4; stroke-opacity: 0.3; stroke-linecap: square"/>
   </g>
   <g id="line2d_24">
    <path d="M 46.145455 108.6522 
L 49.797818 106.741241 
L 51.461673 105.913026 
L 56.737309 103.518496 
L 60.166473 102.491289 
L 62.378182 102.020963 
L 63.595636 101.724367 
L 75.851345 99.084235 
L 79.808073 98.752796 
L 81.329891 98.969893 
L 84.028582 99.862892 
L 85.347491 100.579231 
L 86.321455 101.317949 
L 87.396873 102.439643 
L 89.425964 105.029409 
L 91.191273 107.551973 
L 92.530473 109.927753 
L 94.9248 114.715748 
L 96.223418 117.961811 
L 97.643782 121.956211 
L 99.896073 128.87424 
L 101.316436 134.034744 
L 103.061455 141.174084 
L 104.887636 149.661361 
L 109.960364 174.965298 
L 112.009745 184.441552 
L 113.6736 190.993515 
L 115.0128 195.219139 
L 116.1288 198.064125 
L 117.082473 199.889138 
L 117.934691 201.088678 
L 118.705745 201.842967 
L 119.273891 202.092284 
L 119.882618 202.1248 
L 120.491345 201.927987 
L 121.384145 201.352146 
L 122.094327 200.595152 
L 123.250909 198.99662 
L 124.346618 197.182088 
L 125.665527 194.480259 
L 127.0656 191.123308 
L 129.013527 185.76751 
L 132.239782 177.048626 
L 135.466036 168.797356 
L 138.245891 161.8704 
L 140.051782 158.083033 
L 146.159345 145.885304 
L 149.913164 138.674835 
L 153.971345 130.368102 
L 157.014982 123.708818 
L 159.571636 118.031975 
L 162.594982 111.452185 
L 166.267636 103.708008 
L 167.931491 100.655761 
L 170.122909 97.209001 
L 172.963636 93.099312 
L 174.323127 91.484533 
L 175.398545 90.425608 
L 176.311636 89.813278 
L 179.253818 88.289082 
L 180.735055 87.900198 
L 182.256873 87.720067 
L 185.158473 87.664288 
L 190.068873 88.71684 
L 190.981964 89.004433 
L 194.106764 90.554113 
L 196.622836 92.256092 
L 198.327273 93.609226 
L 201.411491 96.029821 
L 204.820364 98.416665 
L 206.727709 99.418775 
L 209.730764 100.765876 
L 211.962764 101.543965 
L 214.904945 102.643838 
L 221.174836 104.984773 
L 224.056145 105.890671 
L 226.836 106.514478 
L 229.128873 106.814323 
L 231.5232 106.884417 
L 235.906036 106.717014 
L 239.923636 106.645351 
L 242.480291 106.842593 
L 245.097818 107.274767 
L 248.242909 108.032626 
L 249.054545 108.254363 
L 249.054545 108.254363 
" clip-path="url(#p25306e8300)" style="fill: none; stroke: #1f77b4; stroke-opacity: 0.3; stroke-linecap: square"/>
   </g>
   <g id="line2d_25">
    <path d="M 46.145455 109.988882 
L 50.345673 109.435718 
L 53.4096 109.257354 
L 57.833018 108.948431 
L 60.450545 108.447414 
L 62.195564 107.958336 
L 63.595636 107.326556 
L 65.442109 106.273985 
L 67.126255 105.052357 
L 69.277091 103.138204 
L 77.576073 95.387924 
L 79.016727 94.529118 
L 80.274764 94.030211 
L 81.634255 93.703563 
L 82.567636 93.686708 
L 83.845964 93.91526 
L 84.982255 94.360399 
L 86.057673 95.01782 
L 87.153382 95.949298 
L 88.249091 97.144545 
L 89.588291 98.951655 
L 90.826036 100.980275 
L 92.205818 103.681278 
L 93.829091 107.391869 
L 95.330618 111.384238 
L 96.893018 116.186501 
L 98.922109 123.174357 
L 100.870036 130.675606 
L 103.4064 141.394689 
L 110.690836 172.662896 
L 112.902545 180.84489 
L 114.627273 186.452245 
L 116.291127 191.081332 
L 117.9144 194.922437 
L 119.294182 197.608486 
L 120.552218 199.594689 
L 121.668218 200.925957 
L 122.621891 201.714352 
L 123.636436 202.252368 
L 124.366909 202.39857 
L 125.097382 202.347045 
L 125.888727 202.05363 
L 126.680073 201.514231 
L 127.532291 200.646266 
L 128.526545 199.303513 
L 129.541091 197.5656 
L 130.86 194.830451 
L 132.178909 191.543141 
L 133.5384 187.557803 
L 135.750109 180.174429 
L 144.596945 149.982648 
L 146.524582 144.595282 
L 149.060945 138.28886 
L 151.779927 132.262318 
L 154.782982 126.191969 
L 167.850327 101.065548 
L 170.549018 96.463633 
L 173.004218 92.81252 
L 174.465164 91.002492 
L 176.616 88.730889 
L 178.361018 87.232849 
L 179.679927 86.346014 
L 181.120582 85.659589 
L 182.926473 85.034619 
L 184.468582 84.763761 
L 186.375927 84.621886 
L 187.694836 84.737952 
L 189.439855 85.1457 
L 191.671855 85.894115 
L 194.9184 87.445638 
L 197.535927 88.956575 
L 206.037818 93.904101 
L 217.278982 99.69152 
L 220.200873 100.853039 
L 222.858982 101.659395 
L 225.740291 102.272952 
L 228.6216 102.644697 
L 232.253673 102.866286 
L 236.535055 103.134408 
L 239.3352 103.499851 
L 241.729527 104.03481 
L 244.184727 104.816471 
L 247.106618 105.995119 
L 249.054545 106.865441 
L 249.054545 106.865441 
" clip-path="url(#p25306e8300)" style="fill: none; stroke: #1f77b4; stroke-width: 1.5; stroke-linecap: square"/>
   </g>
   <g id="line2d_26">
    <path d="M 46.145455 110.457848 
L 51.705164 111.867329 
L 53.876291 112.080144 
L 55.844509 112.033267 
L 58.908436 111.718516 
L 62.094109 111.445537 
L 64.508727 111.482785 
L 70.3728 111.71502 
L 71.671418 111.453198 
L 72.767127 111.000193 
L 74.126618 110.187578 
L 75.364364 109.1957 
L 76.460073 108.028779 
L 78.468873 105.471558 
L 80.112436 103.051314 
L 83.034327 98.600309 
L 85.306909 95.489108 
L 86.504073 94.281641 
L 87.965018 93.109634 
L 88.979564 92.564767 
L 89.831782 92.350281 
L 90.805745 92.342462 
L 91.779709 92.546846 
L 92.652218 92.958486 
L 93.605891 93.661165 
L 94.600145 94.679073 
L 95.614691 96.053153 
L 96.690109 97.906827 
L 98.029309 100.680835 
L 99.064145 103.325092 
L 100.261309 107.071042 
L 101.986036 113.290148 
L 103.102036 118.053793 
L 104.644145 125.830798 
L 106.916727 138.366914 
L 110.690836 162.380512 
L 113.653309 181.03074 
L 116.047636 193.749818 
L 117.143345 198.399534 
L 118.320218 202.439395 
L 119.4768 205.663525 
L 120.308727 207.385224 
L 121.0392 208.408549 
L 121.769673 209.070756 
L 122.418982 209.386036 
L 123.007418 209.437542 
L 123.616145 209.261162 
L 124.285745 208.82399 
L 125.0568 208.042179 
L 125.969891 206.779893 
L 126.882982 205.129588 
L 128.120727 202.346577 
L 129.906327 197.845602 
L 131.367273 193.505291 
L 135.526909 180.070713 
L 142.527273 155.303557 
L 144.779564 146.932576 
L 146.301382 141.30144 
L 148.249309 134.03282 
L 153.159709 118.101223 
L 156.528 109.133929 
L 159.774545 102.614561 
L 161.276073 100.439671 
L 163.6704 97.267601 
L 165.618327 95.403482 
L 167.525673 93.717123 
L 170.873673 91.456928 
L 172.415782 90.659588 
L 175.560873 89.244793 
L 178.4016 88.463957 
L 179.923418 88.274945 
L 182.338036 88.217238 
L 184.529455 88.452737 
L 186.822327 88.886972 
L 199.666473 91.645402 
L 204.820364 92.53456 
L 212.5512 94.2223 
L 215.107855 95.185945 
L 216.812291 95.930674 
L 221.174836 98.485358 
L 222.960436 99.637097 
L 227.850545 102.340948 
L 230.204291 103.239656 
L 232.334836 103.687924 
L 234.343636 103.928328 
L 242.662909 104.564205 
L 244.489091 104.955113 
L 248.425527 106.117129 
L 249.054545 106.423842 
L 249.054545 106.423842 
" clip-path="url(#p25306e8300)" style="fill: none; stroke: #ff7f0e; stroke-width: 1.5; stroke-linecap: square"/>
   </g>
   <g id="patch_3">
    <path d="M 36 236.88 
L 36 60.48 
" style="fill: none; stroke: #000000; stroke-width: 0.8; stroke-linejoin: miter; stroke-linecap: square"/>
   </g>
   <g id="patch_4">
    <path d="M 259.2 236.88 
L 259.2 60.48 
" style="fill: none; stroke: #000000; stroke-width: 0.8; stroke-linejoin: miter; stroke-linecap: square"/>
   </g>
   <g id="patch_5">
    <path d="M 36 236.88 
L 259.2 236.88 
" style="fill: none; stroke: #000000; stroke-width: 0.8; stroke-linejoin: miter; stroke-linecap: square"/>
   </g>
   <g id="patch_6">
    <path d="M 36 60.48 
L 259.2 60.48 
" style="fill: none; stroke: #000000; stroke-width: 0.8; stroke-linejoin: miter; stroke-linecap: square"/>
   </g>
   <g id="text_17">
    <!-- RMSE: 3.06 -->
    <g transform="translate(167.890909 161.28) scale(0.13 -0.13)">
     <defs>
      <path id="DejaVuSans-52" d="M 2841 2188 
Q 3044 2119 3236 1894 
Q 3428 1669 3622 1275 
L 4263 0 
L 3584 0 
L 2988 1197 
Q 2756 1666 2539 1819 
Q 2322 1972 1947 1972 
L 1259 1972 
L 1259 0 
L 628 0 
L 628 4666 
L 2053 4666 
Q 2853 4666 3247 4331 
Q 3641 3997 3641 3322 
Q 3641 2881 3436 2590 
Q 3231 2300 2841 2188 
z
M 1259 4147 
L 1259 2491 
L 2053 2491 
Q 2509 2491 2742 2702 
Q 2975 2913 2975 3322 
Q 2975 3731 2742 3939 
Q 2509 4147 2053 4147 
L 1259 4147 
z
" transform="scale(0.015625)"/>
      <path id="DejaVuSans-4d" d="M 628 4666 
L 1569 4666 
L 2759 1491 
L 3956 4666 
L 4897 4666 
L 4897 0 
L 4281 0 
L 4281 4097 
L 3078 897 
L 2444 897 
L 1241 4097 
L 1241 0 
L 628 0 
L 628 4666 
z
" transform="scale(0.015625)"/>
      <path id="DejaVuSans-53" d="M 3425 4513 
L 3425 3897 
Q 3066 4069 2747 4153 
Q 2428 4238 2131 4238 
Q 1616 4238 1336 4038 
Q 1056 3838 1056 3469 
Q 1056 3159 1242 3001 
Q 1428 2844 1947 2747 
L 2328 2669 
Q 3034 2534 3370 2195 
Q 3706 1856 3706 1288 
Q 3706 609 3251 259 
Q 2797 -91 1919 -91 
Q 1588 -91 1214 -16 
Q 841 59 441 206 
L 441 856 
Q 825 641 1194 531 
Q 1563 422 1919 422 
Q 2459 422 2753 634 
Q 3047 847 3047 1241 
Q 3047 1584 2836 1778 
Q 2625 1972 2144 2069 
L 1759 2144 
Q 1053 2284 737 2584 
Q 422 2884 422 3419 
Q 422 4038 858 4394 
Q 1294 4750 2059 4750 
Q 2388 4750 2728 4690 
Q 3069 4631 3425 4513 
z
" transform="scale(0.015625)"/>
      <path id="DejaVuSans-45" d="M 628 4666 
L 3578 4666 
L 3578 4134 
L 1259 4134 
L 1259 2753 
L 3481 2753 
L 3481 2222 
L 1259 2222 
L 1259 531 
L 3634 531 
L 3634 0 
L 628 0 
L 628 4666 
z
" transform="scale(0.015625)"/>
      <path id="DejaVuSans-3a" d="M 750 794 
L 1409 794 
L 1409 0 
L 750 0 
L 750 794 
z
M 750 3309 
L 1409 3309 
L 1409 2516 
L 750 2516 
L 750 3309 
z
" transform="scale(0.015625)"/>
      <path id="DejaVuSans-2e" d="M 684 794 
L 1344 794 
L 1344 0 
L 684 0 
L 684 794 
z
" transform="scale(0.015625)"/>
      <path id="DejaVuSans-36" d="M 2113 2584 
Q 1688 2584 1439 2293 
Q 1191 2003 1191 1497 
Q 1191 994 1439 701 
Q 1688 409 2113 409 
Q 2538 409 2786 701 
Q 3034 994 3034 1497 
Q 3034 2003 2786 2293 
Q 2538 2584 2113 2584 
z
M 3366 4563 
L 3366 3988 
Q 3128 4100 2886 4159 
Q 2644 4219 2406 4219 
Q 1781 4219 1451 3797 
Q 1122 3375 1075 2522 
Q 1259 2794 1537 2939 
Q 1816 3084 2150 3084 
Q 2853 3084 3261 2657 
Q 3669 2231 3669 1497 
Q 3669 778 3244 343 
Q 2819 -91 2113 -91 
Q 1303 -91 875 529 
Q 447 1150 447 2328 
Q 447 3434 972 4092 
Q 1497 4750 2381 4750 
Q 2619 4750 2861 4703 
Q 3103 4656 3366 4563 
z
" transform="scale(0.015625)"/>
     </defs>
     <use xlink:href="#DejaVuSans-52"/>
     <use xlink:href="#DejaVuSans-4d" transform="translate(69.482422 0)"/>
     <use xlink:href="#DejaVuSans-53" transform="translate(155.761719 0)"/>
     <use xlink:href="#DejaVuSans-45" transform="translate(219.238281 0)"/>
     <use xlink:href="#DejaVuSans-3a" transform="translate(282.421875 0)"/>
     <use xlink:href="#DejaVuSans-20" transform="translate(316.113281 0)"/>
     <use xlink:href="#DejaVuSans-33" transform="translate(347.900391 0)"/>
     <use xlink:href="#DejaVuSans-2e" transform="translate(411.523438 0)"/>
     <use xlink:href="#DejaVuSans-30" transform="translate(443.310547 0)"/>
     <use xlink:href="#DejaVuSans-36" transform="translate(506.933594 0)"/>
    </g>
   </g>
   <g id="legend_1">
    <g id="patch_7">
     <path d="M 169.0125 231.88 
L 252.2 231.88 
Q 254.2 231.88 254.2 229.88 
L 254.2 201.52375 
Q 254.2 199.52375 252.2 199.52375 
L 169.0125 199.52375 
Q 167.0125 199.52375 167.0125 201.52375 
L 167.0125 229.88 
Q 167.0125 231.88 169.0125 231.88 
z
" style="fill: #ffffff; opacity: 0.8; stroke: #cccccc; stroke-linejoin: miter"/>
    </g>
    <g id="line2d_27">
     <path d="M 171.0125 207.622187 
L 181.0125 207.622187 
L 191.0125 207.622187 
" style="fill: none; stroke: #1f77b4; stroke-width: 1.5; stroke-linecap: square"/>
    </g>
    <g id="text_18">
     <!-- Optimized -->
     <g transform="translate(199.0125 211.122187) scale(0.1 -0.1)">
      <defs>
       <path id="DejaVuSans-4f" d="M 2522 4238 
Q 1834 4238 1429 3725 
Q 1025 3213 1025 2328 
Q 1025 1447 1429 934 
Q 1834 422 2522 422 
Q 3209 422 3611 934 
Q 4013 1447 4013 2328 
Q 4013 3213 3611 3725 
Q 3209 4238 2522 4238 
z
M 2522 4750 
Q 3503 4750 4090 4092 
Q 4678 3434 4678 2328 
Q 4678 1225 4090 567 
Q 3503 -91 2522 -91 
Q 1538 -91 948 565 
Q 359 1222 359 2328 
Q 359 3434 948 4092 
Q 1538 4750 2522 4750 
z
" transform="scale(0.015625)"/>
       <path id="DejaVuSans-74" d="M 1172 4494 
L 1172 3500 
L 2356 3500 
L 2356 3053 
L 1172 3053 
L 1172 1153 
Q 1172 725 1289 603 
Q 1406 481 1766 481 
L 2356 481 
L 2356 0 
L 1766 0 
Q 1100 0 847 248 
Q 594 497 594 1153 
L 594 3053 
L 172 3053 
L 172 3500 
L 594 3500 
L 594 4494 
L 1172 4494 
z
" transform="scale(0.015625)"/>
       <path id="DejaVuSans-7a" d="M 353 3500 
L 3084 3500 
L 3084 2975 
L 922 459 
L 3084 459 
L 3084 0 
L 275 0 
L 275 525 
L 2438 3041 
L 353 3041 
L 353 3500 
z
" transform="scale(0.015625)"/>
       <path id="DejaVuSans-64" d="M 2906 2969 
L 2906 4863 
L 3481 4863 
L 3481 0 
L 2906 0 
L 2906 525 
Q 2725 213 2448 61 
Q 2172 -91 1784 -91 
Q 1150 -91 751 415 
Q 353 922 353 1747 
Q 353 2572 751 3078 
Q 1150 3584 1784 3584 
Q 2172 3584 2448 3432 
Q 2725 3281 2906 2969 
z
M 947 1747 
Q 947 1113 1208 752 
Q 1469 391 1925 391 
Q 2381 391 2643 752 
Q 2906 1113 2906 1747 
Q 2906 2381 2643 2742 
Q 2381 3103 1925 3103 
Q 1469 3103 1208 2742 
Q 947 2381 947 1747 
z
" transform="scale(0.015625)"/>
      </defs>
      <use xlink:href="#DejaVuSans-4f"/>
      <use xlink:href="#DejaVuSans-70" transform="translate(78.710938 0)"/>
      <use xlink:href="#DejaVuSans-74" transform="translate(142.1875 0)"/>
      <use xlink:href="#DejaVuSans-69" transform="translate(181.396484 0)"/>
      <use xlink:href="#DejaVuSans-6d" transform="translate(209.179688 0)"/>
      <use xlink:href="#DejaVuSans-69" transform="translate(306.591797 0)"/>
      <use xlink:href="#DejaVuSans-7a" transform="translate(334.375 0)"/>
      <use xlink:href="#DejaVuSans-65" transform="translate(386.865234 0)"/>
      <use xlink:href="#DejaVuSans-64" transform="translate(448.388672 0)"/>
     </g>
    </g>
    <g id="line2d_28">
     <path d="M 171.0125 222.300313 
L 181.0125 222.300313 
L 191.0125 222.300313 
" style="fill: none; stroke: #ff7f0e; stroke-width: 1.5; stroke-linecap: square"/>
    </g>
    <g id="text_19">
     <!-- Baseline -->
     <g transform="translate(199.0125 225.800313) scale(0.1 -0.1)">
      <defs>
       <path id="DejaVuSans-42" d="M 1259 2228 
L 1259 519 
L 2272 519 
Q 2781 519 3026 730 
Q 3272 941 3272 1375 
Q 3272 1813 3026 2020 
Q 2781 2228 2272 2228 
L 1259 2228 
z
M 1259 4147 
L 1259 2741 
L 2194 2741 
Q 2656 2741 2882 2914 
Q 3109 3088 3109 3444 
Q 3109 3797 2882 3972 
Q 2656 4147 2194 4147 
L 1259 4147 
z
M 628 4666 
L 2241 4666 
Q 2963 4666 3353 4366 
Q 3744 4066 3744 3513 
Q 3744 3084 3544 2831 
Q 3344 2578 2956 2516 
Q 3422 2416 3680 2098 
Q 3938 1781 3938 1306 
Q 3938 681 3513 340 
Q 3088 0 2303 0 
L 628 0 
L 628 4666 
z
" transform="scale(0.015625)"/>
       <path id="DejaVuSans-61" d="M 2194 1759 
Q 1497 1759 1228 1600 
Q 959 1441 959 1056 
Q 959 750 1161 570 
Q 1363 391 1709 391 
Q 2188 391 2477 730 
Q 2766 1069 2766 1631 
L 2766 1759 
L 2194 1759 
z
M 3341 1997 
L 3341 0 
L 2766 0 
L 2766 531 
Q 2569 213 2275 61 
Q 1981 -91 1556 -91 
Q 1019 -91 701 211 
Q 384 513 384 1019 
Q 384 1609 779 1909 
Q 1175 2209 1959 2209 
L 2766 2209 
L 2766 2266 
Q 2766 2663 2505 2880 
Q 2244 3097 1772 3097 
Q 1472 3097 1187 3025 
Q 903 2953 641 2809 
L 641 3341 
Q 956 3463 1253 3523 
Q 1550 3584 1831 3584 
Q 2591 3584 2966 3190 
Q 3341 2797 3341 1997 
z
" transform="scale(0.015625)"/>
      </defs>
      <use xlink:href="#DejaVuSans-42"/>
      <use xlink:href="#DejaVuSans-61" transform="translate(68.603516 0)"/>
      <use xlink:href="#DejaVuSans-73" transform="translate(129.882812 0)"/>
      <use xlink:href="#DejaVuSans-65" transform="translate(181.982422 0)"/>
      <use xlink:href="#DejaVuSans-6c" transform="translate(243.505859 0)"/>
      <use xlink:href="#DejaVuSans-69" transform="translate(271.289062 0)"/>
      <use xlink:href="#DejaVuSans-6e" transform="translate(299.072266 0)"/>
      <use xlink:href="#DejaVuSans-65" transform="translate(362.451172 0)"/>
     </g>
    </g>
   </g>
  </g>
  <g id="axes_2">
   <g id="patch_8">
    <path d="M 36 448.56 
L 259.2 448.56 
L 259.2 272.16 
L 36 272.16 
z
" style="fill: #ffffff"/>
   </g>
   <g id="matplotlib.axis_3">
    <g id="xtick_7">
     <g id="line2d_29">
      <g>
       <use xlink:href="#m8266a41d09" x="46.145455" y="448.56" style="stroke: #000000; stroke-width: 0.8"/>
      </g>
     </g>
     <g id="text_20">
      <!-- 0 -->
      <g transform="translate(42.964205 463.158437) scale(0.1 -0.1)">
       <use xlink:href="#DejaVuSans-30"/>
      </g>
     </g>
    </g>
    <g id="xtick_8">
     <g id="line2d_30">
      <g>
       <use xlink:href="#m8266a41d09" x="87.13719" y="448.56" style="stroke: #000000; stroke-width: 0.8"/>
      </g>
     </g>
     <g id="text_21">
      <!-- 20 -->
      <g transform="translate(80.77469 463.158437) scale(0.1 -0.1)">
       <use xlink:href="#DejaVuSans-32"/>
       <use xlink:href="#DejaVuSans-30" transform="translate(63.623047 0)"/>
      </g>
     </g>
    </g>
    <g id="xtick_9">
     <g id="line2d_31">
      <g>
       <use xlink:href="#m8266a41d09" x="128.128926" y="448.56" style="stroke: #000000; stroke-width: 0.8"/>
      </g>
     </g>
     <g id="text_22">
      <!-- 40 -->
      <g transform="translate(121.766426 463.158437) scale(0.1 -0.1)">
       <use xlink:href="#DejaVuSans-34"/>
       <use xlink:href="#DejaVuSans-30" transform="translate(63.623047 0)"/>
      </g>
     </g>
    </g>
    <g id="xtick_10">
     <g id="line2d_32">
      <g>
       <use xlink:href="#m8266a41d09" x="169.120661" y="448.56" style="stroke: #000000; stroke-width: 0.8"/>
      </g>
     </g>
     <g id="text_23">
      <!-- 60 -->
      <g transform="translate(162.758161 463.158437) scale(0.1 -0.1)">
       <use xlink:href="#DejaVuSans-36"/>
       <use xlink:href="#DejaVuSans-30" transform="translate(63.623047 0)"/>
      </g>
     </g>
    </g>
    <g id="xtick_11">
     <g id="line2d_33">
      <g>
       <use xlink:href="#m8266a41d09" x="210.112397" y="448.56" style="stroke: #000000; stroke-width: 0.8"/>
      </g>
     </g>
     <g id="text_24">
      <!-- 80 -->
      <g transform="translate(203.749897 463.158437) scale(0.1 -0.1)">
       <defs>
        <path id="DejaVuSans-38" d="M 2034 2216 
Q 1584 2216 1326 1975 
Q 1069 1734 1069 1313 
Q 1069 891 1326 650 
Q 1584 409 2034 409 
Q 2484 409 2743 651 
Q 3003 894 3003 1313 
Q 3003 1734 2745 1975 
Q 2488 2216 2034 2216 
z
M 1403 2484 
Q 997 2584 770 2862 
Q 544 3141 544 3541 
Q 544 4100 942 4425 
Q 1341 4750 2034 4750 
Q 2731 4750 3128 4425 
Q 3525 4100 3525 3541 
Q 3525 3141 3298 2862 
Q 3072 2584 2669 2484 
Q 3125 2378 3379 2068 
Q 3634 1759 3634 1313 
Q 3634 634 3220 271 
Q 2806 -91 2034 -91 
Q 1263 -91 848 271 
Q 434 634 434 1313 
Q 434 1759 690 2068 
Q 947 2378 1403 2484 
z
M 1172 3481 
Q 1172 3119 1398 2916 
Q 1625 2713 2034 2713 
Q 2441 2713 2670 2916 
Q 2900 3119 2900 3481 
Q 2900 3844 2670 4047 
Q 2441 4250 2034 4250 
Q 1625 4250 1398 4047 
Q 1172 3844 1172 3481 
z
" transform="scale(0.015625)"/>
       </defs>
       <use xlink:href="#DejaVuSans-38"/>
       <use xlink:href="#DejaVuSans-30" transform="translate(63.623047 0)"/>
      </g>
     </g>
    </g>
    <g id="xtick_12">
     <g id="line2d_34">
      <g>
       <use xlink:href="#m8266a41d09" x="251.104132" y="448.56" style="stroke: #000000; stroke-width: 0.8"/>
      </g>
     </g>
     <g id="text_25">
      <!-- 100 -->
      <g transform="translate(241.560382 463.158437) scale(0.1 -0.1)">
       <use xlink:href="#DejaVuSans-31"/>
       <use xlink:href="#DejaVuSans-30" transform="translate(63.623047 0)"/>
       <use xlink:href="#DejaVuSans-30" transform="translate(127.246094 0)"/>
      </g>
     </g>
    </g>
    <g id="text_26">
     <!-- Epochs -->
     <g transform="translate(124.309687 479.116094) scale(0.13 -0.13)">
      <defs>
       <path id="DejaVuSans-63" d="M 3122 3366 
L 3122 2828 
Q 2878 2963 2633 3030 
Q 2388 3097 2138 3097 
Q 1578 3097 1268 2742 
Q 959 2388 959 1747 
Q 959 1106 1268 751 
Q 1578 397 2138 397 
Q 2388 397 2633 464 
Q 2878 531 3122 666 
L 3122 134 
Q 2881 22 2623 -34 
Q 2366 -91 2075 -91 
Q 1284 -91 818 406 
Q 353 903 353 1747 
Q 353 2603 823 3093 
Q 1294 3584 2113 3584 
Q 2378 3584 2631 3529 
Q 2884 3475 3122 3366 
z
" transform="scale(0.015625)"/>
       <path id="DejaVuSans-68" d="M 3513 2113 
L 3513 0 
L 2938 0 
L 2938 2094 
Q 2938 2591 2744 2837 
Q 2550 3084 2163 3084 
Q 1697 3084 1428 2787 
Q 1159 2491 1159 1978 
L 1159 0 
L 581 0 
L 581 4863 
L 1159 4863 
L 1159 2956 
Q 1366 3272 1645 3428 
Q 1925 3584 2291 3584 
Q 2894 3584 3203 3211 
Q 3513 2838 3513 2113 
z
" transform="scale(0.015625)"/>
      </defs>
      <use xlink:href="#DejaVuSans-45"/>
      <use xlink:href="#DejaVuSans-70" transform="translate(63.183594 0)"/>
      <use xlink:href="#DejaVuSans-6f" transform="translate(126.660156 0)"/>
      <use xlink:href="#DejaVuSans-63" transform="translate(187.841797 0)"/>
      <use xlink:href="#DejaVuSans-68" transform="translate(242.822266 0)"/>
      <use xlink:href="#DejaVuSans-73" transform="translate(306.201172 0)"/>
     </g>
    </g>
   </g>
   <g id="matplotlib.axis_4">
    <g id="ytick_9">
     <g id="line2d_35">
      <g>
       <use xlink:href="#mb978350878" x="36" y="439.737565" style="stroke: #000000; stroke-width: 0.8"/>
      </g>
     </g>
     <g id="text_27">
      <!-- 0.025 -->
      <g transform="translate(0.371875 443.536784) scale(0.1 -0.1)">
       <use xlink:href="#DejaVuSans-30"/>
       <use xlink:href="#DejaVuSans-2e" transform="translate(63.623047 0)"/>
       <use xlink:href="#DejaVuSans-30" transform="translate(95.410156 0)"/>
       <use xlink:href="#DejaVuSans-32" transform="translate(159.033203 0)"/>
       <use xlink:href="#DejaVuSans-35" transform="translate(222.65625 0)"/>
      </g>
     </g>
    </g>
    <g id="ytick_10">
     <g id="line2d_36">
      <g>
       <use xlink:href="#mb978350878" x="36" y="417.505059" style="stroke: #000000; stroke-width: 0.8"/>
      </g>
     </g>
     <g id="text_28">
      <!-- 0.050 -->
      <g transform="translate(0.371875 421.304278) scale(0.1 -0.1)">
       <use xlink:href="#DejaVuSans-30"/>
       <use xlink:href="#DejaVuSans-2e" transform="translate(63.623047 0)"/>
       <use xlink:href="#DejaVuSans-30" transform="translate(95.410156 0)"/>
       <use xlink:href="#DejaVuSans-35" transform="translate(159.033203 0)"/>
       <use xlink:href="#DejaVuSans-30" transform="translate(222.65625 0)"/>
      </g>
     </g>
    </g>
    <g id="ytick_11">
     <g id="line2d_37">
      <g>
       <use xlink:href="#mb978350878" x="36" y="395.272553" style="stroke: #000000; stroke-width: 0.8"/>
      </g>
     </g>
     <g id="text_29">
      <!-- 0.075 -->
      <g transform="translate(0.371875 399.071772) scale(0.1 -0.1)">
       <defs>
        <path id="DejaVuSans-37" d="M 525 4666 
L 3525 4666 
L 3525 4397 
L 1831 0 
L 1172 0 
L 2766 4134 
L 525 4134 
L 525 4666 
z
" transform="scale(0.015625)"/>
       </defs>
       <use xlink:href="#DejaVuSans-30"/>
       <use xlink:href="#DejaVuSans-2e" transform="translate(63.623047 0)"/>
       <use xlink:href="#DejaVuSans-30" transform="translate(95.410156 0)"/>
       <use xlink:href="#DejaVuSans-37" transform="translate(159.033203 0)"/>
       <use xlink:href="#DejaVuSans-35" transform="translate(222.65625 0)"/>
      </g>
     </g>
    </g>
    <g id="ytick_12">
     <g id="line2d_38">
      <g>
       <use xlink:href="#mb978350878" x="36" y="373.040047" style="stroke: #000000; stroke-width: 0.8"/>
      </g>
     </g>
     <g id="text_30">
      <!-- 0.100 -->
      <g transform="translate(0.371875 376.839266) scale(0.1 -0.1)">
       <use xlink:href="#DejaVuSans-30"/>
       <use xlink:href="#DejaVuSans-2e" transform="translate(63.623047 0)"/>
       <use xlink:href="#DejaVuSans-31" transform="translate(95.410156 0)"/>
       <use xlink:href="#DejaVuSans-30" transform="translate(159.033203 0)"/>
       <use xlink:href="#DejaVuSans-30" transform="translate(222.65625 0)"/>
      </g>
     </g>
    </g>
    <g id="ytick_13">
     <g id="line2d_39">
      <g>
       <use xlink:href="#mb978350878" x="36" y="350.807541" style="stroke: #000000; stroke-width: 0.8"/>
      </g>
     </g>
     <g id="text_31">
      <!-- 0.125 -->
      <g transform="translate(0.371875 354.60676) scale(0.1 -0.1)">
       <use xlink:href="#DejaVuSans-30"/>
       <use xlink:href="#DejaVuSans-2e" transform="translate(63.623047 0)"/>
       <use xlink:href="#DejaVuSans-31" transform="translate(95.410156 0)"/>
       <use xlink:href="#DejaVuSans-32" transform="translate(159.033203 0)"/>
       <use xlink:href="#DejaVuSans-35" transform="translate(222.65625 0)"/>
      </g>
     </g>
    </g>
    <g id="ytick_14">
     <g id="line2d_40">
      <g>
       <use xlink:href="#mb978350878" x="36" y="328.575035" style="stroke: #000000; stroke-width: 0.8"/>
      </g>
     </g>
     <g id="text_32">
      <!-- 0.150 -->
      <g transform="translate(0.371875 332.374254) scale(0.1 -0.1)">
       <use xlink:href="#DejaVuSans-30"/>
       <use xlink:href="#DejaVuSans-2e" transform="translate(63.623047 0)"/>
       <use xlink:href="#DejaVuSans-31" transform="translate(95.410156 0)"/>
       <use xlink:href="#DejaVuSans-35" transform="translate(159.033203 0)"/>
       <use xlink:href="#DejaVuSans-30" transform="translate(222.65625 0)"/>
      </g>
     </g>
    </g>
    <g id="ytick_15">
     <g id="line2d_41">
      <g>
       <use xlink:href="#mb978350878" x="36" y="306.342529" style="stroke: #000000; stroke-width: 0.8"/>
      </g>
     </g>
     <g id="text_33">
      <!-- 0.175 -->
      <g transform="translate(0.371875 310.141748) scale(0.1 -0.1)">
       <use xlink:href="#DejaVuSans-30"/>
       <use xlink:href="#DejaVuSans-2e" transform="translate(63.623047 0)"/>
       <use xlink:href="#DejaVuSans-31" transform="translate(95.410156 0)"/>
       <use xlink:href="#DejaVuSans-37" transform="translate(159.033203 0)"/>
       <use xlink:href="#DejaVuSans-35" transform="translate(222.65625 0)"/>
      </g>
     </g>
    </g>
    <g id="ytick_16">
     <g id="line2d_42">
      <g>
       <use xlink:href="#mb978350878" x="36" y="284.110023" style="stroke: #000000; stroke-width: 0.8"/>
      </g>
     </g>
     <g id="text_34">
      <!-- 0.200 -->
      <g transform="translate(0.371875 287.909242) scale(0.1 -0.1)">
       <use xlink:href="#DejaVuSans-30"/>
       <use xlink:href="#DejaVuSans-2e" transform="translate(63.623047 0)"/>
       <use xlink:href="#DejaVuSans-32" transform="translate(95.410156 0)"/>
       <use xlink:href="#DejaVuSans-30" transform="translate(159.033203 0)"/>
       <use xlink:href="#DejaVuSans-30" transform="translate(222.65625 0)"/>
      </g>
     </g>
    </g>
    <g id="text_35">
     <!-- Loss -->
     <g transform="translate(-6.331719 374.617344) rotate(-90) scale(0.13 -0.13)">
      <defs>
       <path id="DejaVuSans-4c" d="M 628 4666 
L 1259 4666 
L 1259 531 
L 3531 531 
L 3531 0 
L 628 0 
L 628 4666 
z
" transform="scale(0.015625)"/>
      </defs>
      <use xlink:href="#DejaVuSans-4c"/>
      <use xlink:href="#DejaVuSans-6f" transform="translate(53.962891 0)"/>
      <use xlink:href="#DejaVuSans-73" transform="translate(115.144531 0)"/>
      <use xlink:href="#DejaVuSans-73" transform="translate(167.244141 0)"/>
     </g>
    </g>
   </g>
   <g id="line2d_43">
    <path d="M 46.145455 280.178182 
L 48.195041 280.178182 
L 50.244628 280.178182 
L 52.294215 280.178182 
L 54.343802 280.178182 
L 56.393388 280.178182 
L 58.442975 280.178182 
L 60.492562 280.178182 
L 62.542149 280.178182 
L 64.591736 280.178182 
L 66.641322 280.178182 
L 68.690909 280.178182 
L 70.740496 280.178182 
L 72.790083 280.178182 
L 74.839669 280.178182 
L 76.889256 280.178182 
L 78.938843 280.178182 
L 80.98843 280.178182 
L 83.038017 280.178182 
L 85.087603 280.178182 
L 87.13719 280.178182 
L 89.186777 280.178182 
L 91.236364 280.178182 
L 93.28595 288.406161 
L 95.335537 288.406161 
L 97.385124 288.406161 
L 99.434711 380.912583 
L 101.484298 380.912583 
L 103.533884 380.912583 
L 105.583471 380.912583 
L 107.633058 380.912583 
L 109.682645 380.912583 
L 111.732231 380.912583 
L 113.781818 380.912583 
L 115.831405 380.912583 
L 117.880992 380.912583 
L 119.930579 380.912583 
L 121.980165 380.912583 
L 124.029752 380.912583 
L 126.079339 380.912583 
L 128.128926 380.912583 
L 130.178512 380.912583 
L 132.228099 380.912583 
L 134.277686 380.912583 
L 136.327273 380.912583 
L 138.37686 380.912583 
L 140.426446 380.912583 
L 142.476033 380.912583 
L 144.52562 380.912583 
L 146.575207 380.912583 
L 148.624793 380.912583 
L 150.67438 380.912583 
L 152.723967 380.912583 
L 154.773554 380.912583 
L 156.82314 380.912583 
L 158.872727 380.912583 
L 160.922314 380.912583 
L 162.971901 380.912583 
L 165.021488 380.912583 
L 167.071074 380.912583 
L 169.120661 380.912583 
L 171.170248 380.912583 
L 173.219835 380.912583 
L 175.269421 380.912583 
L 177.319008 380.912583 
L 179.368595 380.912583 
L 181.418182 380.912583 
L 183.467769 380.912583 
L 185.517355 380.912583 
L 187.566942 380.912583 
L 189.616529 380.912583 
L 191.666116 380.912583 
L 193.715702 380.912583 
L 195.765289 380.912583 
L 197.814876 380.912583 
L 199.864463 380.912583 
L 201.91405 380.912583 
L 203.963636 380.912583 
L 206.013223 380.912583 
L 208.06281 380.912583 
L 210.112397 380.912583 
L 212.161983 440.541818 
L 214.21157 440.541818 
L 216.261157 440.541818 
L 218.310744 440.541818 
L 220.360331 440.541818 
L 222.409917 440.541818 
L 224.459504 440.541818 
L 226.509091 440.541818 
L 228.558678 440.541818 
L 230.608264 440.541818 
L 232.657851 440.541818 
L 234.707438 440.541818 
L 236.757025 440.541818 
L 238.806612 440.541818 
L 240.856198 440.541818 
L 242.905785 440.541818 
L 244.955372 440.541818 
L 247.004959 440.541818 
L 249.054545 440.541818 
" clip-path="url(#pfbb8fc95a4)" style="fill: none; stroke: #000000; stroke-width: 1.5; stroke-linecap: square"/>
   </g>
   <g id="patch_9">
    <path d="M 36 448.56 
L 36 272.16 
" style="fill: none; stroke: #000000; stroke-width: 0.8; stroke-linejoin: miter; stroke-linecap: square"/>
   </g>
   <g id="patch_10">
    <path d="M 259.2 448.56 
L 259.2 272.16 
" style="fill: none; stroke: #000000; stroke-width: 0.8; stroke-linejoin: miter; stroke-linecap: square"/>
   </g>
   <g id="patch_11">
    <path d="M 36 448.56 
L 259.2 448.56 
" style="fill: none; stroke: #000000; stroke-width: 0.8; stroke-linejoin: miter; stroke-linecap: square"/>
   </g>
   <g id="patch_12">
    <path d="M 36 272.16 
L 259.2 272.16 
" style="fill: none; stroke: #000000; stroke-width: 0.8; stroke-linejoin: miter; stroke-linecap: square"/>
   </g>
  </g>
 </g>
 <defs>
  <clipPath id="p25306e8300">
   <rect x="36" y="60.48" width="223.2" height="176.4"/>
  </clipPath>
  <clipPath id="pfbb8fc95a4">
   <rect x="36" y="272.16" width="223.2" height="176.4"/>
  </clipPath>
 </defs>
</svg>
